<?xml version="1.0" encoding="UTF-8" standalone="no"?>
<svg
   viewBox="0 0 550 550"
   version="1.1"
   id="svg12"
   sodipodi:docname="hippo.svg"
   inkscape:version="1.1.2 (0a00cf5339, 2022-02-04)"
   width="550"
   height="550"
   xmlns:inkscape="http://www.inkscape.org/namespaces/inkscape"
   xmlns:sodipodi="http://sodipodi.sourceforge.net/DTD/sodipodi-0.dtd"
   xmlns="http://www.w3.org/2000/svg"
   xmlns:svg="http://www.w3.org/2000/svg">
  <defs
     id="defs16" />
  <sodipodi:namedview
     id="namedview14"
     pagecolor="#ffffff"
     bordercolor="#666666"
     borderopacity="1.0"
     inkscape:pageshadow="2"
     inkscape:pageopacity="0.0"
     inkscape:pagecheckerboard="0"
     showgrid="false"
     inkscape:zoom="1.3320312"
     inkscape:cx="-20.269795"
     inkscape:cy="255.62463"
     inkscape:window-width="2560"
     inkscape:window-height="1379"
     inkscape:window-x="0"
     inkscape:window-y="0"
     inkscape:window-maximized="1"
     inkscape:current-layer="svg12"
     width="550px" />
  <rect
     style="fill:#4338ca;fill-opacity:1;stroke:none;stroke-linecap:round;stroke-linejoin:round;stroke-opacity:1;paint-order:markers stroke fill"
     id="rect20794"
     width="550"
     height="550"
     x="0"
     y="0"
     rx="35"
     ry="35" />
  <path
     fill="#4338ca"
     d="m 493.286,301.159 c -1.796,-1.836 -3.648,-3.605 -5.54,-5.321 0.069,-2.163 0.11,-4.312 0.11,-6.431 0,-44.117 -5.57,-81.242 -16.904,-112.195 11.833,-5.703 22.227,-14.193 30.254,-24.935 C 513.62,135.661 519.29,115.14 517.168,94.496 514.916,72.579 504.265,52.853 487.174,38.948 470.086,25.044 448.605,18.623 426.688,20.879 408.793,22.718 392.366,30.127 379.184,42.307 370.641,50.2 363.849,59.916 359.28,70.565 334.614,62.849 306.496,58.954 275,58.954 c -31.496,0 -59.614,3.895 -84.279,11.612 C 186.152,59.916 179.36,50.201 170.817,42.308 157.633,30.129 141.208,22.718 123.313,20.879 101.395,18.627 79.914,25.044 62.825,38.948 45.736,52.854 35.084,72.581 32.832,94.497 c -2.121,20.644 3.547,41.165 15.962,57.781 8.027,10.743 18.42,19.232 30.254,24.935 -11.334,30.952 -16.904,68.077 -16.904,112.195 0,2.118 0.04,4.267 0.11,6.431 -1.892,1.716 -3.743,3.485 -5.54,5.321 C 32.393,326.012 19,359.586 19,395.696 c 0,73.815 60.052,133.867 133.867,133.867 h 244.267 c 73.814,0 133.866,-60.052 133.866,-133.867 0,-36.11 -13.393,-69.684 -37.714,-94.537 z M 429.893,52.062 c 13.584,-1.396 26.904,2.582 37.498,11.202 10.595,8.62 17.198,20.85 18.594,34.437 1.316,12.798 -2.197,25.516 -9.891,35.814 -4.849,6.491 -11.084,11.659 -18.178,15.191 -3.194,-5.692 -6.639,-11.13 -10.355,-16.302 C 432.207,111.032 412.42,94.282 388.339,82.207 395.62,65.635 411.23,53.979 429.893,52.062 Z M 181.7,107.316 c 25.216,-11.29 56.606,-17.015 93.3,-17.015 36.694,0 68.085,5.725 93.3,17.015 22.46,10.056 40.058,24.245 53.802,43.376 21.27,29.608 32.49,70.322 34.175,124.13 -17.976,-8.502 -38.071,-12.991 -59.144,-12.991 -57.274,0 -103.906,20.856 -122.133,30.33 -18.227,-9.474 -64.859,-30.33 -122.133,-30.33 -21.074,0 -41.168,4.489 -59.144,12.991 1.685,-53.808 12.906,-94.521 34.175,-124.13 13.744,-19.131 31.343,-33.32 53.802,-43.376 z M 73.906,133.515 c -7.694,-10.296 -11.207,-23.016 -9.891,-35.814 1.396,-13.587 8,-25.817 18.594,-34.437 10.594,-8.619 23.909,-12.601 37.498,-11.202 18.663,1.917 34.273,13.573 41.553,30.144 -24.081,12.074 -43.868,28.824 -59.221,50.197 -3.716,5.172 -7.161,10.611 -10.355,16.302 -7.093,-3.531 -13.328,-8.699 -18.178,-15.19 z M 397.133,498.217 H 152.867 c -56.53,0 -102.52,-45.99 -102.52,-102.52 0,-58.446 44.074,-102.52 102.52,-102.52 63.396,0 113.475,29.969 113.949,30.257 l 8.175,4.976 8.169,-4.961 c 0.498,-0.303 50.577,-30.272 113.973,-30.272 58.446,0 102.52,44.074 102.52,102.52 0,56.529 -45.99,102.52 -102.52,102.52 z"
     id="path2"
     style="fill:#ffffff" />
  <path
     fill="#ffffff"
     d="m 222.839,229.583 c 11.355,0 20.582,-9.332 20.582,-20.843 0,-11.513 -9.227,-20.835 -20.582,-20.835 -11.34,0 -20.569,9.324 -20.569,20.835 0,11.511 9.228,20.843 20.569,20.843 z"
     id="path4"
     style="fill:#ffffff;fill-opacity:1" />
  <path
     fill="#ffffff"
     d="m 327.011,229.738 c 11.436,0 20.724,-9.401 20.724,-20.998 0,-11.597 -9.288,-20.998 -20.724,-20.998 -11.45,0 -20.738,9.401 -20.738,20.998 -0.001,11.597 9.287,20.998 20.738,20.998 z"
     id="path6"
     style="fill:#ffffff;fill-opacity:1" />
  <path
     fill="#ffffff"
     d="m 154.739,351.406 c -24.422,0 -44.29,19.869 -44.29,44.29 0,24.421 19.869,44.29 44.29,44.29 24.421,0 44.29,-19.869 44.29,-44.29 0,-24.421 -19.869,-44.29 -44.29,-44.29 z m 0,57.235 c -7.137,0 -12.943,-5.807 -12.943,-12.943 0,-7.137 5.807,-12.943 12.943,-12.943 7.136,0 12.943,5.807 12.943,12.943 0,7.136 -5.807,12.943 -12.943,12.943 z"
     id="path8"
     style="fill:#ffffff;fill-opacity:1" />
  <path
     fill="#ffffff"
     d="m 395.261,351.406 c -24.422,0 -44.29,19.869 -44.29,44.29 0,24.421 19.869,44.29 44.29,44.29 24.421,0 44.29,-19.869 44.29,-44.29 0.001,-24.421 -19.867,-44.29 -44.29,-44.29 z m 0,57.235 c -7.137,0 -12.943,-5.807 -12.943,-12.943 0,-7.137 5.806,-12.943 12.943,-12.943 7.137,0 12.943,5.807 12.943,12.943 10e-4,7.136 -5.806,12.943 -12.943,12.943 z"
     id="path10"
     style="fill:#ffffff;fill-opacity:1" />
</svg>
